<svg id="Layer_1" data-name="Layer 1" xmlns="http://www.w3.org/2000/svg" viewBox="0 0 660.91 208.11"><defs><style>.cls-1{fill:#444;}.cls-2{fill:#c02227;}</style></defs><path class="cls-1" d="M105.36,159c-.21.21-.66.55-.7.81a13.54,13.54,0,0,0,0,2.12v14a6.59,6.59,0,0,0,0,1.09c0,.22.51.6.72.81,3.94,3.93,7.76,7.73,11.65,11.65,3.92-3.86,7.81-7.79,11.71-11.69.24-.23.7-.57.75-.83a7.49,7.49,0,0,0,0-1.06v-15a6.35,6.35,0,0,0,0-1.07c-.05-.22-.51-.6-.73-.81L117,147.32c-3.89,3.86-7.78,7.79-11.68,11.67m33.41-20.7v17.58c0,.2.52.59.73.79,3.58,3.57,7.08,7.08,10.65,10.65.23.23.59.68.83.72a10.08,10.08,0,0,0,1.1,0c5.5,0,11.06,0,16.49,0V150.68a7.34,7.34,0,0,0,0-1.15c0-.21-.48-.54-.67-.73L158,138.9c-.21-.22-.54-.67-.79-.67H138.79s0,0,0,.06m-62.41-.06q-5.08,5.06-10.17,10.14c-.21.21-.59.52-.63.74a7.6,7.6,0,0,0,0,1.17V168H82a8.2,8.2,0,0,0,1.11,0c.23-.05.59-.54.81-.75l10.7-10.7c.23-.23.69-.58.73-.81a6.6,6.6,0,0,0,0-1.09V138.23Zm101.73-34.52c-.23-.23-.59-.72-.83-.77a5.89,5.89,0,0,0-1,0H160.57c-4.24,4.21-8.44,8.45-12.68,12.66,4.12,4.2,8.33,8.36,12.52,12.54.23.23.61.76.87.81a6,6,0,0,0,.95,0h13.41a6.26,6.26,0,0,0,1,0c.24,0,.65-.57.87-.79,4.21-4.21,8.39-8.38,12.52-12.56l-11.91-11.89M55.92,128.16c.24.24.59.74.87.79a6.27,6.27,0,0,0,1,0H71.44a5.43,5.43,0,0,0,1,0c.22,0,.63-.58.85-.79,4-4,8-8,12-12a4.29,4.29,0,0,0,.4-.43,5.38,5.38,0,0,0-.4-.38c-3.91-3.92-7.75-7.78-11.65-11.67-.22-.22-.62-.72-.85-.77a5.66,5.66,0,0,0-1,0H56.39c-4.3,4.26-8.55,8.56-12.85,12.82,4.09,4.15,8.23,8.25,12.38,12.4M104.64,94v8.91H86s.08.14.12.18L98.4,115.38c.11.11.41.35.4.4l-.4.41c-4.23,4.22-8.36,8.36-12.58,12.58-.06,0-.23.14-.12.18a5.05,5.05,0,0,0,1.17,0h17.79c0,5.7,0,12,0,17.58,4-3.9,8-8,12-12a2.72,2.72,0,0,1,.41-.39l.38.39c4,4,7.88,7.91,11.87,11.89.06.06.14.19.18.1a4.39,4.39,0,0,0,0-1.09V129H148c0-.09-.1-.13-.15-.18-4.37-4.38-8.76-8.8-13.1-13.17l12.5-12.48c.06-.06.19-.14.1-.18a4.63,4.63,0,0,0-1.12,0c-5.65,0-11.24,0-16.77,0V85.07c-.07,0-.14.08-.18.12L117.5,97a2.72,2.72,0,0,1-.41.39l-.38-.39c-4-4-8-8.06-12.07-12Zm46-30.17c-3.73,3.7-7.43,7.43-11.16,11.16-.22.22-.67.55-.71.79a7,7,0,0,0,0,1.12V93.66h17.85c.18,0,.62-.53.8-.71,3.51-3.5,6.94-7,10.44-10.45.23-.23.67-.56.71-.79a8.36,8.36,0,0,0,0-1.12c0-5.58,0-11.23,0-16.73Zm-85.08.06V81.28a7.72,7.72,0,0,0,0,1.18c0,.21.47.53.67.73L76,93c.22.21.51.63.75.67a7.47,7.47,0,0,0,1.16,0h17.4c0-5.9,0-12,0-17.82a.57.57,0,0,0,0-.13c0-.2-.5-.55-.71-.77L84.3,64.57c-.2-.2-.58-.68-.79-.71a11.21,11.21,0,0,0-1.16,0H65.58s0,0,0,.06m39.8-10.06c-.21.21-.69.59-.72.79a6.13,6.13,0,0,0,0,1.05v15a5,5,0,0,0,0,1c.06.22.53.6.75.81,4,4,7.77,7.78,11.73,11.69,3.87-3.9,7.72-7.72,11.62-11.62.23-.23.69-.59.73-.84a7.63,7.63,0,0,0,0-1.07c0-5.41,0-10.87,0-16.15-4.07-4.13-8.28-8.3-12.42-12.43-3.9,3.87-7.82,7.82-11.73,11.73M117.12,29c8.33,8.33,16.61,16.59,24.95,24.94.18.17.45.58.71.62a7.71,7.71,0,0,0,1.36,0h33.67s0,0,0,0V89.37a3,3,0,0,0,.07,1,5.89,5.89,0,0,0,.79.79l23.64,23.64a8.33,8.33,0,0,1,.79.77c0,.06-.59.63-.69.73L178,140.76a.58.58,0,0,0-.17.52v30.53c0,1.83,0,3.73,0,5.51-11.37,0-22.88,0-34.32,0a7.92,7.92,0,0,0-1.09,0c-.27,0-.61.51-.85.75-8.22,8.22-16.32,16.32-24.56,24.51q-12.2-12.24-24.48-24.49c-.22-.21-.61-.72-.8-.77a5.84,5.84,0,0,0-1.11,0c-11.46,0-22.85,0-34.3,0,0,0,0,0,0-.06V141.67L30.8,116.17a4.1,4.1,0,0,1-.41-.39,4.69,4.69,0,0,1,.41-.43C39.21,107,47.57,98.61,56,90.2c.16-.16.28-.23.3-.51.09-1.44,0-2.94,0-4.39V54.61s0,0,.06,0H91.53C100.05,46,108.6,37.45,117.12,29" transform="translate(-30.39 -29)"/><path class="cls-1" d="M263.12,69a15.09,15.09,0,0,1-.09,1.79,4.79,4.79,0,0,1-.27,1.19,1.51,1.51,0,0,1-.45.67.9.9,0,0,1-.59.22H250v37.69a1,1,0,0,1-.24.65,1.58,1.58,0,0,1-.78.47,7.31,7.31,0,0,1-1.46.29,24,24,0,0,1-4.59,0,7.47,7.47,0,0,1-1.46-.29,1.62,1.62,0,0,1-.78-.47,1,1,0,0,1-.23-.65V72.83H228.76a.91.91,0,0,1-.62-.22,1.58,1.58,0,0,1-.43-.67,4.79,4.79,0,0,1-.27-1.19,15.09,15.09,0,0,1-.09-1.79,16,16,0,0,1,.09-1.84,4.87,4.87,0,0,1,.27-1.21,1.5,1.5,0,0,1,.43-.65,1,1,0,0,1,.62-.2h33a1,1,0,0,1,.59.2,1.44,1.44,0,0,1,.45.65,4.87,4.87,0,0,1,.27,1.21A16,16,0,0,1,263.12,69Z" transform="translate(-30.39 -29)"/><path class="cls-1" d="M298.9,110.59a1,1,0,0,1-.22.64,1.54,1.54,0,0,1-.72.45,6.2,6.2,0,0,1-1.39.27q-.88.09-2.19.09t-2.22-.09a6.2,6.2,0,0,1-1.39-.27,1.54,1.54,0,0,1-.72-.45,1,1,0,0,1-.22-.64V92.2a15.54,15.54,0,0,0-.34-3.69,7.16,7.16,0,0,0-1-2.29,4.36,4.36,0,0,0-1.68-1.48,5.18,5.18,0,0,0-2.4-.53,6,6,0,0,0-3.51,1.27,19,19,0,0,0-3.68,3.68v21.43a1,1,0,0,1-.22.64,1.56,1.56,0,0,1-.74.45,6.44,6.44,0,0,1-1.39.27c-.58.06-1.31.09-2.2.09a22.1,22.1,0,0,1-2.21-.09,6.44,6.44,0,0,1-1.39-.27,1.56,1.56,0,0,1-.74-.45,1,1,0,0,1-.22-.64V63.07a1,1,0,0,1,.22-.65,1.67,1.67,0,0,1,.74-.49,6.23,6.23,0,0,1,1.39-.3,22.16,22.16,0,0,1,4.41,0,6.23,6.23,0,0,1,1.39.3,1.67,1.67,0,0,1,.74.49,1,1,0,0,1,.22.65V80.89A17.32,17.32,0,0,1,282,77.44a11.83,11.83,0,0,1,5.07-1.14,12.77,12.77,0,0,1,5.55,1.08,9.64,9.64,0,0,1,3.65,3,12,12,0,0,1,2,4.39,25.94,25.94,0,0,1,.61,6.09Z" transform="translate(-30.39 -29)"/><path class="cls-1" d="M337.61,93.54a3.52,3.52,0,0,1-.74,2.45,2.68,2.68,0,0,1-2.05.8H315.2a13.23,13.23,0,0,0,.49,3.74,7,7,0,0,0,1.55,2.85,6.72,6.72,0,0,0,2.75,1.79,11.73,11.73,0,0,0,4,.62,22.47,22.47,0,0,0,4.19-.35,27.92,27.92,0,0,0,3.13-.75c.88-.28,1.6-.53,2.18-.76a4.09,4.09,0,0,1,1.41-.35,1.08,1.08,0,0,1,.54.13.9.9,0,0,1,.37.45,3.13,3.13,0,0,1,.19.92q.06.6.06,1.5c0,.53,0,1,0,1.36a7.52,7.52,0,0,1-.11,1,2.23,2.23,0,0,1-.21.66,3.06,3.06,0,0,1-.38.53,4.28,4.28,0,0,1-1.29.68,18.9,18.9,0,0,1-2.67.85,37.21,37.21,0,0,1-3.72.73,31.67,31.67,0,0,1-4.48.3,23.85,23.85,0,0,1-7.54-1.08,13.45,13.45,0,0,1-5.4-3.29,13.73,13.73,0,0,1-3.24-5.56A26.18,26.18,0,0,1,306,94.84a24.92,24.92,0,0,1,1.12-7.75,16.33,16.33,0,0,1,3.25-5.86,14.06,14.06,0,0,1,5.19-3.67,17.87,17.87,0,0,1,6.88-1.26,18.1,18.1,0,0,1,6.92,1.19A12.53,12.53,0,0,1,334,80.8a13.39,13.39,0,0,1,2.71,5,21.78,21.78,0,0,1,.87,6.29Zm-8.82-2.61a9.33,9.33,0,0,0-1.54-6,5.93,5.93,0,0,0-5.08-2.19,6.61,6.61,0,0,0-3,.65A6.19,6.19,0,0,0,317,85.13a8.2,8.2,0,0,0-1.31,2.61,13.05,13.05,0,0,0-.52,3.19Z" transform="translate(-30.39 -29)"/><path class="cls-1" d="M371.9,110.52a1,1,0,0,1-.23.65,1.62,1.62,0,0,1-.78.47,7.35,7.35,0,0,1-1.45.29,24.1,24.1,0,0,1-4.6,0,7.44,7.44,0,0,1-1.47-.29,1.54,1.54,0,0,1-.77-.47,1,1,0,0,1-.24-.65V66.36a1,1,0,0,1,.24-.65,1.64,1.64,0,0,1,.79-.47,7.79,7.79,0,0,1,1.46-.29,24,24,0,0,1,4.59,0,7.35,7.35,0,0,1,1.45.29,1.7,1.7,0,0,1,.78.47,1,1,0,0,1,.23.65Z" transform="translate(-30.39 -29)"/><path class="cls-1" d="M412.12,110.59a1.17,1.17,0,0,1-.18.67,1.3,1.3,0,0,1-.61.45,4.25,4.25,0,0,1-1.18.26c-.49,0-1.1.07-1.82.07s-1.4,0-1.88-.07a4.43,4.43,0,0,1-1.17-.26,1.39,1.39,0,0,1-.65-.45,1,1,0,0,1-.2-.67V107a21,21,0,0,1-5.23,4.15,12.43,12.43,0,0,1-6.05,1.48,12.59,12.59,0,0,1-6.23-1.42,12,12,0,0,1-4.16-3.85,16.75,16.75,0,0,1-2.33-5.66,31.18,31.18,0,0,1-.72-6.81,29.58,29.58,0,0,1,.92-7.73,17.49,17.49,0,0,1,2.69-5.86,12,12,0,0,1,4.41-3.72,13.52,13.52,0,0,1,6.07-1.3,10.91,10.91,0,0,1,4.92,1.1,17.48,17.48,0,0,1,4.37,3.24V63.18a1.07,1.07,0,0,1,.2-.65A1.47,1.47,0,0,1,404,62a6.77,6.77,0,0,1,1.39-.31,24.36,24.36,0,0,1,4.41,0,6.25,6.25,0,0,1,1.37.31,1.67,1.67,0,0,1,.73.49,1.07,1.07,0,0,1,.21.65Zm-9-21.53a19.79,19.79,0,0,0-3.74-3.76,6.25,6.25,0,0,0-3.74-1.3,5.27,5.27,0,0,0-3.06.88,6.52,6.52,0,0,0-2.06,2.37,12.8,12.8,0,0,0-1.15,3.31A18.46,18.46,0,0,0,389,94.3a24.05,24.05,0,0,0,.32,3.93,12.59,12.59,0,0,0,1.07,3.42,6.41,6.41,0,0,0,2,2.4,5.05,5.05,0,0,0,3.11.91,6.22,6.22,0,0,0,1.82-.27,7.21,7.21,0,0,0,1.81-.89,12.53,12.53,0,0,0,1.9-1.61,30.68,30.68,0,0,0,2.13-2.44Z" transform="translate(-30.39 -29)"/><path class="cls-1" d="M442,81.36c0,.87,0,1.58-.07,2.13a6.39,6.39,0,0,1-.22,1.3,1.28,1.28,0,0,1-.37.65,1,1,0,0,1-.6.18,2.09,2.09,0,0,1-.65-.12l-.81-.28-1-.27a5.51,5.51,0,0,0-1.19-.12,4.11,4.11,0,0,0-1.52.3,6.57,6.57,0,0,0-1.57,1,11.78,11.78,0,0,0-1.7,1.74,28.77,28.77,0,0,0-1.9,2.67v20.09a1,1,0,0,1-.21.64,1.67,1.67,0,0,1-.74.45,6.55,6.55,0,0,1-1.4.27,26.93,26.93,0,0,1-4.4,0,6.55,6.55,0,0,1-1.4-.27,1.62,1.62,0,0,1-.74-.45,1,1,0,0,1-.21-.64V78.36a1.11,1.11,0,0,1,.18-.63,1.36,1.36,0,0,1,.65-.46,5.09,5.09,0,0,1,1.21-.27,15.79,15.79,0,0,1,1.86-.09,16.61,16.61,0,0,1,1.91.09,4.39,4.39,0,0,1,1.18.27,1.47,1.47,0,0,1,.6.46,1.11,1.11,0,0,1,.18.63v4a25.17,25.17,0,0,1,2.38-3,14.11,14.11,0,0,1,2.13-1.86,6.68,6.68,0,0,1,2-1,7.79,7.79,0,0,1,2-.27c.31,0,.65,0,1,0s.74.1,1.12.18a8,8,0,0,1,1,.29,2.24,2.24,0,0,1,.63.35,1.17,1.17,0,0,1,.29.39,3.59,3.59,0,0,1,.16.6,9.48,9.48,0,0,1,.11,1.14C442,79.8,442,80.49,442,81.36Z" transform="translate(-30.39 -29)"/><path class="cls-1" d="M457.37,67.44c0,1.84-.37,3.1-1.12,3.8s-2.13,1.05-4.16,1.05-3.43-.34-4.14-1-1.06-1.9-1.06-3.65.37-3.11,1.1-3.82,2.13-1.06,4.17-1.06,3.4.34,4.12,1S457.37,65.69,457.37,67.44Zm-.69,43.15a1,1,0,0,1-.21.64,1.66,1.66,0,0,1-.75.45,6.44,6.44,0,0,1-1.39.27,21.88,21.88,0,0,1-2.2.09c-.89,0-1.63,0-2.21-.09a6.57,6.57,0,0,1-1.39-.27,1.62,1.62,0,0,1-.74-.45,1,1,0,0,1-.21-.64V78.43a1,1,0,0,1,.21-.63,1.72,1.72,0,0,1,.74-.47,6.3,6.3,0,0,1,1.39-.31,18.94,18.94,0,0,1,2.21-.11,18.63,18.63,0,0,1,2.2.11,6.17,6.17,0,0,1,1.39.31,1.76,1.76,0,0,1,.75.47,1,1,0,0,1,.21.63Z" transform="translate(-30.39 -29)"/><path class="cls-1" d="M495.53,93.54a3.52,3.52,0,0,1-.74,2.45,2.64,2.64,0,0,1-2,.8H473.12a13.6,13.6,0,0,0,.49,3.74,7.17,7.17,0,0,0,1.56,2.85,6.68,6.68,0,0,0,2.74,1.79,11.77,11.77,0,0,0,4,.62,22.47,22.47,0,0,0,4.19-.35,27.39,27.39,0,0,0,3.13-.75c.88-.28,1.61-.53,2.19-.76a4,4,0,0,1,1.41-.35,1.13,1.13,0,0,1,.54.13.94.94,0,0,1,.36.45,3.09,3.09,0,0,1,.2.92c0,.4.05.9.05,1.5s0,1,0,1.36-.06.69-.11,1a2.22,2.22,0,0,1-.22.66,2.6,2.6,0,0,1-.38.53,4.18,4.18,0,0,1-1.28.68,19.08,19.08,0,0,1-2.68.85,36.66,36.66,0,0,1-3.72.73,31.67,31.67,0,0,1-4.48.3,23.74,23.74,0,0,1-7.53-1.08,13.42,13.42,0,0,1-5.41-3.29,13.71,13.71,0,0,1-3.23-5.56,26.17,26.17,0,0,1-1.07-7.88A25.22,25.22,0,0,1,465,87.09a16.2,16.2,0,0,1,3.26-5.86,14.11,14.11,0,0,1,5.18-3.67,17.92,17.92,0,0,1,6.89-1.26,18.17,18.17,0,0,1,6.92,1.19A12.57,12.57,0,0,1,492,80.8a13.39,13.39,0,0,1,2.71,5,21.78,21.78,0,0,1,.87,6.29Zm-8.82-2.61a9.39,9.39,0,0,0-1.53-6,6,6,0,0,0-5.08-2.19,6.65,6.65,0,0,0-3,.65A6.38,6.38,0,0,0,475,85.13a8,8,0,0,0-1.3,2.61,13.05,13.05,0,0,0-.53,3.19Z" transform="translate(-30.39 -29)"/><path class="cls-1" d="M525.71,101.49a10.94,10.94,0,0,1-1,4.84,9.7,9.7,0,0,1-2.91,3.51,13.39,13.39,0,0,1-4.45,2.11,20.9,20.9,0,0,1-5.56.7,21.17,21.17,0,0,1-3.45-.27,21.89,21.89,0,0,1-2.95-.68,15.64,15.64,0,0,1-2.17-.85,5,5,0,0,1-1.26-.82,2.51,2.51,0,0,1-.62-1.19,10.25,10.25,0,0,1-.21-2.4,15.07,15.07,0,0,1,.07-1.68,4.15,4.15,0,0,1,.22-1,.86.86,0,0,1,.36-.51,1.08,1.08,0,0,1,.54-.13,2.72,2.72,0,0,1,1.17.45c.52.31,1.17.64,1.94,1a19.87,19.87,0,0,0,2.69,1,12,12,0,0,0,3.49.47,8.54,8.54,0,0,0,2.18-.25,5.26,5.26,0,0,0,1.66-.73,3.05,3.05,0,0,0,1.07-1.19,3.65,3.65,0,0,0,.36-1.66,2.74,2.74,0,0,0-.67-1.86A5.85,5.85,0,0,0,514.41,99a21.09,21.09,0,0,0-2.49-1.08c-.93-.34-1.88-.71-2.86-1.12a26.92,26.92,0,0,1-2.85-1.41,10.74,10.74,0,0,1-2.49-1.95A8.7,8.7,0,0,1,502,90.65a10.22,10.22,0,0,1-.67-3.91,9.92,9.92,0,0,1,.9-4.24,9.27,9.27,0,0,1,2.6-3.31,12.09,12.09,0,0,1,4.14-2.13,18.29,18.29,0,0,1,5.48-.76,18.83,18.83,0,0,1,2.94.22,20.09,20.09,0,0,1,2.58.54,12.15,12.15,0,0,1,2,.7,6.87,6.87,0,0,1,1.13.65,1.71,1.71,0,0,1,.49.54,2.33,2.33,0,0,1,.22.66c0,.25.09.56.13.94s0,.83,0,1.39,0,1.18,0,1.59a3.94,3.94,0,0,1-.19,1,.82.82,0,0,1-.34.49,1,1,0,0,1-.5.13,2.53,2.53,0,0,1-1-.38,16.45,16.45,0,0,0-1.71-.82,19.52,19.52,0,0,0-2.39-.81,11.56,11.56,0,0,0-3.09-.38,8.3,8.3,0,0,0-2.13.25,4,4,0,0,0-1.48.73,3,3,0,0,0-.87,1.1,3.24,3.24,0,0,0-.29,1.35,2.68,2.68,0,0,0,.69,1.88,6.22,6.22,0,0,0,1.8,1.34,19.17,19.17,0,0,0,2.55,1.08c1,.34,1.92.71,2.89,1.11a25.58,25.58,0,0,1,2.9,1.39,10.8,10.8,0,0,1,2.54,2A9,9,0,0,1,525,97.67,9.69,9.69,0,0,1,525.71,101.49Z" transform="translate(-30.39 -29)"/><path class="cls-1" d="M577.53,97.8a14.53,14.53,0,0,1-1.37,6.47,13.37,13.37,0,0,1-3.73,4.64,16,16,0,0,1-5.49,2.8,23.27,23.27,0,0,1-6.72.94,24.33,24.33,0,0,1-4.5-.39,26.56,26.56,0,0,1-3.67-1,16.12,16.12,0,0,1-2.66-1.18,7.69,7.69,0,0,1-1.53-1.08,2.68,2.68,0,0,1-.67-1.36,12.45,12.45,0,0,1-.2-2.54c0-.75,0-1.38.07-1.88a5.34,5.34,0,0,1,.24-1.23,1.37,1.37,0,0,1,.43-.67,1.06,1.06,0,0,1,.64-.2,3,3,0,0,1,1.42.6,25.47,25.47,0,0,0,2.37,1.32,21.55,21.55,0,0,0,3.45,1.32,16.65,16.65,0,0,0,4.64.59,11,11,0,0,0,3.11-.41,6.81,6.81,0,0,0,2.33-1.18,4.94,4.94,0,0,0,1.47-1.88,6.05,6.05,0,0,0,.5-2.49,4.42,4.42,0,0,0-.86-2.73,8.72,8.72,0,0,0-2.26-2,23.28,23.28,0,0,0-3.16-1.66c-1.19-.52-2.4-1.07-3.66-1.65a33,33,0,0,1-3.65-2,14.55,14.55,0,0,1-3.16-2.64,12.54,12.54,0,0,1-2.26-3.63A14.87,14.87,0,0,1,549,71.8a12.09,12.09,0,0,1,3.36-4.23,14.3,14.3,0,0,1,5-2.51,22.6,22.6,0,0,1,9.42-.58,22.8,22.8,0,0,1,3.1.69,17.55,17.55,0,0,1,2.57,1,6.16,6.16,0,0,1,1.48.91,2.75,2.75,0,0,1,.49.61,3.09,3.09,0,0,1,.22.67,6.64,6.64,0,0,1,.12,1c0,.42,0,.94,0,1.57s0,1.29-.06,1.77a5.66,5.66,0,0,1-.18,1.19,1.32,1.32,0,0,1-.36.69.93.93,0,0,1-.63.22,3,3,0,0,1-1.27-.51c-.57-.34-1.28-.7-2.13-1.1a20.66,20.66,0,0,0-2.92-1.09,13.16,13.16,0,0,0-3.65-.48,8.59,8.59,0,0,0-2.72.38,5.65,5.65,0,0,0-1.93,1,4.16,4.16,0,0,0-1.15,1.61,5.15,5.15,0,0,0-.38,2,4.34,4.34,0,0,0,.85,2.69,8.05,8.05,0,0,0,2.27,2A24.42,24.42,0,0,0,563.8,83c1.2.52,2.43,1.06,3.68,1.64a38.61,38.61,0,0,1,3.69,2,15.48,15.48,0,0,1,3.22,2.64,12.51,12.51,0,0,1,2.27,3.61A12.65,12.65,0,0,1,577.53,97.8Z" transform="translate(-30.39 -29)"/><path class="cls-1" d="M615,110.59a1,1,0,0,1-.22.64,1.54,1.54,0,0,1-.72.45,6.2,6.2,0,0,1-1.39.27q-.88.09-2.19.09T608.3,112a6.2,6.2,0,0,1-1.39-.27,1.54,1.54,0,0,1-.72-.45,1,1,0,0,1-.22-.64V92.2a16.09,16.09,0,0,0-.34-3.69,7.16,7.16,0,0,0-1-2.29A4.36,4.36,0,0,0,603,84.74a5.21,5.21,0,0,0-2.4-.53A6,6,0,0,0,597,85.48a18.72,18.72,0,0,0-3.68,3.68v21.43a1,1,0,0,1-.22.64,1.56,1.56,0,0,1-.74.45A6.44,6.44,0,0,1,591,112a22.1,22.1,0,0,1-2.21.09c-.89,0-1.62,0-2.2-.09a6.44,6.44,0,0,1-1.39-.27,1.56,1.56,0,0,1-.74-.45,1,1,0,0,1-.22-.64V63.07a1,1,0,0,1,.22-.65,1.67,1.67,0,0,1,.74-.49,6.23,6.23,0,0,1,1.39-.3,22.16,22.16,0,0,1,4.41,0,6.23,6.23,0,0,1,1.39.3,1.67,1.67,0,0,1,.74.49,1,1,0,0,1,.22.65V80.89a17.32,17.32,0,0,1,4.79-3.45,11.8,11.8,0,0,1,5.07-1.14,12.8,12.8,0,0,1,5.55,1.08,9.64,9.64,0,0,1,3.65,3,12,12,0,0,1,2,4.39,25.94,25.94,0,0,1,.61,6.09Z" transform="translate(-30.39 -29)"/><path class="cls-1" d="M651.43,110.7a1,1,0,0,1-.36.8,2.46,2.46,0,0,1-1.14.41,14.56,14.56,0,0,1-2.29.13,14.79,14.79,0,0,1-2.37-.13,2.07,2.07,0,0,1-1-.41,1.07,1.07,0,0,1-.3-.8v-2.56a14.64,14.64,0,0,1-4.54,3.32,13.1,13.1,0,0,1-5.66,1.19A16,16,0,0,1,629,112a10.55,10.55,0,0,1-3.72-2,8.84,8.84,0,0,1-2.44-3.27,11.11,11.11,0,0,1-.87-4.56,10.32,10.32,0,0,1,1.1-4.89,9,9,0,0,1,3.29-3.44,16.38,16.38,0,0,1,5.44-2,38.34,38.34,0,0,1,7.55-.65h3.15v-2a10.45,10.45,0,0,0-.31-2.66,4.51,4.51,0,0,0-1-1.9,4.24,4.24,0,0,0-1.88-1.12,10.13,10.13,0,0,0-2.91-.36,14.9,14.9,0,0,0-4.07.51,22.6,22.6,0,0,0-3.16,1.12c-.91.41-1.68.78-2.29,1.12a3.34,3.34,0,0,1-1.5.5,1.08,1.08,0,0,1-.71-.25,1.88,1.88,0,0,1-.5-.72,4.51,4.51,0,0,1-.31-1.16,10,10,0,0,1-.11-1.52,7,7,0,0,1,.18-1.77,2.71,2.71,0,0,1,.69-1.17,6.45,6.45,0,0,1,1.77-1.16,20.75,20.75,0,0,1,3-1.17,27.66,27.66,0,0,1,3.71-.89,24.23,24.23,0,0,1,4.13-.34,24.88,24.88,0,0,1,6.49.74,10.89,10.89,0,0,1,4.43,2.28,8.88,8.88,0,0,1,2.53,4,18.54,18.54,0,0,1,.79,5.75Zm-8.92-13.8H639a19.16,19.16,0,0,0-3.76.32,7.11,7.11,0,0,0-2.53,1,4,4,0,0,0-1.43,1.57,4.74,4.74,0,0,0-.45,2.11,4.08,4.08,0,0,0,1.28,3.18,5.09,5.09,0,0,0,3.56,1.16,6.7,6.7,0,0,0,3.53-1,15.06,15.06,0,0,0,3.27-2.86Z" transform="translate(-30.39 -29)"/><path class="cls-1" d="M691.29,110.59a1,1,0,0,1-.21.64,1.63,1.63,0,0,1-.73.45A6.08,6.08,0,0,1,689,112c-.59.06-1.32.09-2.18.09s-1.64,0-2.23-.09a6.2,6.2,0,0,1-1.39-.27,1.54,1.54,0,0,1-.72-.45,1,1,0,0,1-.22-.64V92.2a15.54,15.54,0,0,0-.34-3.69,7.16,7.16,0,0,0-1-2.29,4.36,4.36,0,0,0-1.68-1.48,5.18,5.18,0,0,0-2.4-.53,6,6,0,0,0-3.5,1.27,18.74,18.74,0,0,0-3.69,3.68v21.43a1,1,0,0,1-.22.64,1.56,1.56,0,0,1-.74.45,6.44,6.44,0,0,1-1.39.27c-.58.06-1.31.09-2.2.09a22.1,22.1,0,0,1-2.21-.09,6.44,6.44,0,0,1-1.39-.27,1.56,1.56,0,0,1-.74-.45,1,1,0,0,1-.22-.64V63.07a1,1,0,0,1,.22-.65,1.67,1.67,0,0,1,.74-.49,6.23,6.23,0,0,1,1.39-.3,22.16,22.16,0,0,1,4.41,0,6.23,6.23,0,0,1,1.39.3,1.67,1.67,0,0,1,.74.49,1,1,0,0,1,.22.65V80.89a17.32,17.32,0,0,1,4.79-3.45,11.83,11.83,0,0,1,5.07-1.14A12.77,12.77,0,0,1,685,77.38a9.64,9.64,0,0,1,3.65,3,12,12,0,0,1,2,4.39,25.94,25.94,0,0,1,.61,6.09Z" transform="translate(-30.39 -29)"/><path class="cls-2" d="M254.86,127.82a15.59,15.59,0,0,1-.09,1.83,4.14,4.14,0,0,1-.29,1.17,1.77,1.77,0,0,1-.45.65.84.84,0,0,1-.58.22H238.16v12.58h14.35a1,1,0,0,1,.58.18,1.45,1.45,0,0,1,.45.61,4.07,4.07,0,0,1,.29,1.16,18.15,18.15,0,0,1,0,3.61,4.6,4.6,0,0,1-.29,1.19,1.56,1.56,0,0,1-.45.67.93.93,0,0,1-.58.2H238.16v17.42a1.17,1.17,0,0,1-.21.69,1.69,1.69,0,0,1-.78.48,6.46,6.46,0,0,1-1.46.31,24.2,24.2,0,0,1-4.61,0,6.21,6.21,0,0,1-1.47-.31,1.7,1.7,0,0,1-.77-.48,1.07,1.07,0,0,1-.24-.69V126.92a2.88,2.88,0,0,1,.82-2.3,2.94,2.94,0,0,1,2-.7h22a.93.93,0,0,1,.58.2,1.61,1.61,0,0,1,.45.65,4.38,4.38,0,0,1,.29,1.21A15.89,15.89,0,0,1,254.86,127.82Z" transform="translate(-30.39 -29)"/><path class="cls-2" d="M293.74,153a24.75,24.75,0,0,1-1.08,7.52,15.85,15.85,0,0,1-3.29,5.85,14.58,14.58,0,0,1-5.53,3.8,20.76,20.76,0,0,1-7.77,1.33,21.16,21.16,0,0,1-7.48-1.19,13.42,13.42,0,0,1-5.28-3.47,14.26,14.26,0,0,1-3.1-5.6,25.92,25.92,0,0,1-1-7.59,24.2,24.2,0,0,1,1.11-7.53,15.82,15.82,0,0,1,3.3-5.86,14.78,14.78,0,0,1,5.52-3.77,20.38,20.38,0,0,1,7.75-1.34,21.74,21.74,0,0,1,7.51,1.17,13.27,13.27,0,0,1,5.26,3.45,14.29,14.29,0,0,1,3.09,5.61A26,26,0,0,1,293.74,153Zm-9.36.36A23.08,23.08,0,0,0,284,149a10.32,10.32,0,0,0-1.28-3.49,6.49,6.49,0,0,0-2.4-2.31,7.77,7.77,0,0,0-3.78-.83,8,8,0,0,0-3.54.74,6.34,6.34,0,0,0-2.49,2.17,10.52,10.52,0,0,0-1.47,3.43,19.7,19.7,0,0,0-.49,4.57,22.94,22.94,0,0,0,.4,4.39,11,11,0,0,0,1.28,3.49,6.26,6.26,0,0,0,2.41,2.3,7.89,7.89,0,0,0,3.76.81,8.1,8.1,0,0,0,3.57-.74,6.33,6.33,0,0,0,2.5-2.15,9.86,9.86,0,0,0,1.44-3.42A19.7,19.7,0,0,0,284.38,153.37Z" transform="translate(-30.39 -29)"/><path class="cls-2" d="M331.51,169.45a1.14,1.14,0,0,1-.18.64,1.3,1.3,0,0,1-.64.45,4.79,4.79,0,0,1-1.19.27,15.79,15.79,0,0,1-1.86.09,16.63,16.63,0,0,1-1.93-.09,4.59,4.59,0,0,1-1.18-.27,1.3,1.3,0,0,1-.61-.45,1.14,1.14,0,0,1-.18-.64v-3.72a20.57,20.57,0,0,1-5.44,4.34,12.23,12.23,0,0,1-5.73,1.44,12.85,12.85,0,0,1-5.58-1.08,9.62,9.62,0,0,1-3.65-3,12,12,0,0,1-2-4.36,26.65,26.65,0,0,1-.6-6.16V137.22a1.05,1.05,0,0,1,.2-.63,1.53,1.53,0,0,1,.73-.46,6.29,6.29,0,0,1,1.41-.27c.59-.06,1.31-.09,2.18-.09s1.63,0,2.21.09a6.57,6.57,0,0,1,1.39.27,1.62,1.62,0,0,1,.74.46,1,1,0,0,1,.22.63v18.21a17.28,17.28,0,0,0,.32,3.87,6.84,6.84,0,0,0,1,2.29,4.68,4.68,0,0,0,1.7,1.49,5.38,5.38,0,0,0,2.41.52,5.91,5.91,0,0,0,3.48-1.27,20.59,20.59,0,0,0,3.74-3.68V137.22a1.05,1.05,0,0,1,.2-.63,1.49,1.49,0,0,1,.72-.46,6.55,6.55,0,0,1,1.4-.27,21.88,21.88,0,0,1,2.2-.09c.89,0,1.63,0,2.21.09a6.23,6.23,0,0,1,1.37.27,1.55,1.55,0,0,1,.72.46,1,1,0,0,1,.22.63Z" transform="translate(-30.39 -29)"/><path class="cls-2" d="M371.44,169.45a1,1,0,0,1-.22.64,1.54,1.54,0,0,1-.72.45,6.2,6.2,0,0,1-1.39.27q-.89.09-2.19.09t-2.22-.09a6.2,6.2,0,0,1-1.39-.27,1.54,1.54,0,0,1-.72-.45,1,1,0,0,1-.22-.64V151.06a15.49,15.49,0,0,0-.34-3.69,7.16,7.16,0,0,0-1-2.29,4.36,4.36,0,0,0-1.68-1.48,5.21,5.21,0,0,0-2.4-.53,6,6,0,0,0-3.51,1.27,18.72,18.72,0,0,0-3.68,3.68v21.43a1,1,0,0,1-.22.64,1.56,1.56,0,0,1-.74.45,6.44,6.44,0,0,1-1.39.27,22.1,22.1,0,0,1-2.21.09c-.89,0-1.62,0-2.2-.09a6.44,6.44,0,0,1-1.39-.27,1.56,1.56,0,0,1-.74-.45,1,1,0,0,1-.22-.64V137.22a1.11,1.11,0,0,1,.18-.63,1.34,1.34,0,0,1,.65-.46,5.21,5.21,0,0,1,1.21-.27,16,16,0,0,1,1.86-.09,16.92,16.92,0,0,1,1.92.09,4.22,4.22,0,0,1,1.17.27,1.33,1.33,0,0,1,.6.46,1.11,1.11,0,0,1,.18.63v3.72a20.57,20.57,0,0,1,5.44-4.34,12.29,12.29,0,0,1,5.76-1.44,12.8,12.8,0,0,1,5.55,1.08,9.69,9.69,0,0,1,3.65,2.95,11.92,11.92,0,0,1,2,4.35,25.42,25.42,0,0,1,.61,6Z" transform="translate(-30.39 -29)"/><path class="cls-2" d="M410.94,169.45a1.17,1.17,0,0,1-.18.67,1.35,1.35,0,0,1-.61.45,4.34,4.34,0,0,1-1.18.26c-.49,0-1.1.07-1.82.07s-1.4,0-1.88-.07a4.43,4.43,0,0,1-1.18-.26,1.44,1.44,0,0,1-.65-.45,1.11,1.11,0,0,1-.2-.67v-3.57A20.75,20.75,0,0,1,398,170a12.46,12.46,0,0,1-6,1.48,12.63,12.63,0,0,1-6.24-1.42,12.06,12.06,0,0,1-4.15-3.85,16.75,16.75,0,0,1-2.33-5.66,30.64,30.64,0,0,1-.73-6.81,29.56,29.56,0,0,1,.93-7.73,17.49,17.49,0,0,1,2.69-5.86,12,12,0,0,1,4.41-3.72,13.52,13.52,0,0,1,6.07-1.3,10.9,10.9,0,0,1,4.91,1.1,17.71,17.71,0,0,1,4.38,3.23V122a1.13,1.13,0,0,1,.19-.65,1.55,1.55,0,0,1,.73-.49,6.77,6.77,0,0,1,1.39-.31,24.36,24.36,0,0,1,4.41,0,6.39,6.39,0,0,1,1.37.31,1.57,1.57,0,0,1,.72.49,1,1,0,0,1,.22.65Zm-9-21.53a20.09,20.09,0,0,0-3.74-3.76,6.27,6.27,0,0,0-3.75-1.3,5.24,5.24,0,0,0-3.05.88,6.52,6.52,0,0,0-2.06,2.37,12.87,12.87,0,0,0-1.16,3.3,18.6,18.6,0,0,0-.37,3.74,23.11,23.11,0,0,0,.32,3.94,12.25,12.25,0,0,0,1.07,3.42,6.41,6.41,0,0,0,2,2.4,5,5,0,0,0,3.1.91,6.24,6.24,0,0,0,1.83-.27,7.38,7.38,0,0,0,1.81-.89,12.49,12.49,0,0,0,1.89-1.61c.65-.66,1.36-1.47,2.14-2.44Z" transform="translate(-30.39 -29)"/><path class="cls-2" d="M447.55,169.56a1,1,0,0,1-.36.8,2.46,2.46,0,0,1-1.14.41,20.94,20.94,0,0,1-4.66,0,2,2,0,0,1-1.05-.41,1,1,0,0,1-.31-.8V167a14.6,14.6,0,0,1-4.53,3.32,13.13,13.13,0,0,1-5.66,1.19,16.07,16.07,0,0,1-4.72-.66,10.72,10.72,0,0,1-3.72-2,9,9,0,0,1-2.44-3.27,11.11,11.11,0,0,1-.86-4.56,10.2,10.2,0,0,1,1.1-4.89,8.94,8.94,0,0,1,3.29-3.44,16.3,16.3,0,0,1,5.44-2,38.26,38.26,0,0,1,7.55-.65h3.14v-2a10.48,10.48,0,0,0-.3-2.66,4.52,4.52,0,0,0-1-1.9,4.19,4.19,0,0,0-1.88-1.12,10,10,0,0,0-2.91-.36,14.83,14.83,0,0,0-4.06.51,22.15,22.15,0,0,0-3.16,1.12c-.92.41-1.68.78-2.3,1.12a3.39,3.39,0,0,1-1.5.5,1.06,1.06,0,0,1-.7-.25,1.8,1.8,0,0,1-.51-.72,5.67,5.67,0,0,1-.31-1.16,10.11,10.11,0,0,1-.1-1.52,7,7,0,0,1,.18-1.77,2.79,2.79,0,0,1,.68-1.17,6.79,6.79,0,0,1,1.77-1.16,21.4,21.4,0,0,1,3-1.17,27.88,27.88,0,0,1,3.7-.89,24.44,24.44,0,0,1,4.14-.34,24.93,24.93,0,0,1,6.49.74,10.78,10.78,0,0,1,4.42,2.28,8.8,8.8,0,0,1,2.53,3.95,18.52,18.52,0,0,1,.8,5.75Zm-8.93-13.8h-3.47a19.24,19.24,0,0,0-3.76.32,7.13,7.13,0,0,0-2.52,1,4,4,0,0,0-1.43,1.57,4.74,4.74,0,0,0-.45,2.11,4,4,0,0,0,1.28,3.18,5.07,5.07,0,0,0,3.56,1.16,6.64,6.64,0,0,0,3.52-1,15.06,15.06,0,0,0,3.27-2.86Z" transform="translate(-30.39 -29)"/><path class="cls-2" d="M487.41,136a2.79,2.79,0,0,1,2.11.65,2.67,2.67,0,0,1,.6,1.88v30.93a1,1,0,0,1-.22.64,1.54,1.54,0,0,1-.72.45,6.2,6.2,0,0,1-1.39.27q-.89.09-2.19.09t-2.22-.09a6.2,6.2,0,0,1-1.39-.27,1.54,1.54,0,0,1-.72-.45,1,1,0,0,1-.22-.64V143.36H466.56V158.5a7.49,7.49,0,0,0,.83,4,3.21,3.21,0,0,0,3,1.32,5.72,5.72,0,0,0,1.3-.13,7.15,7.15,0,0,0,1-.29c.3-.1.56-.2.76-.28A1.41,1.41,0,0,1,474,163a.74.74,0,0,1,.42.13.83.83,0,0,1,.3.5,6.71,6.71,0,0,1,.2,1,12.51,12.51,0,0,1,.09,1.66,12.08,12.08,0,0,1-.18,2.41,2.83,2.83,0,0,1-.5,1.19,2.57,2.57,0,0,1-1,.65,9.18,9.18,0,0,1-1.5.47,17.6,17.6,0,0,1-1.84.31,19,19,0,0,1-2,.11,14.31,14.31,0,0,1-4.69-.69A7.69,7.69,0,0,1,460,168.6,8.78,8.78,0,0,1,458.1,165a19,19,0,0,1-.61-5.13V143.36h-3.87c-.46,0-.81-.28-1.05-.85a7.9,7.9,0,0,1-.36-2.83,14.91,14.91,0,0,1,.09-1.78,4.16,4.16,0,0,1,.27-1.13,1.32,1.32,0,0,1,.45-.6,1.14,1.14,0,0,1,.64-.18h3.83V128.8a1.07,1.07,0,0,1,.2-.65,1.41,1.41,0,0,1,.72-.49,5.85,5.85,0,0,1,1.41-.29c.59-.06,1.32-.09,2.18-.09s1.64,0,2.23.09a5.56,5.56,0,0,1,1.39.29,1.55,1.55,0,0,1,.72.49,1,1,0,0,1,.22.65V136Zm3.43-9.69c0,1.84-.37,3.1-1.12,3.8s-2.13,1.05-4.15,1.05-3.43-.34-4.14-1-1.07-1.9-1.07-3.66.37-3.1,1.1-3.81,2.13-1.06,4.18-1.06,3.4.34,4.12,1S490.84,124.55,490.84,126.3Z" transform="translate(-30.39 -29)"/><path class="cls-2" d="M531.86,153a24.75,24.75,0,0,1-1.08,7.52,16,16,0,0,1-3.29,5.85,14.66,14.66,0,0,1-5.53,3.8,20.8,20.8,0,0,1-7.77,1.33,21.16,21.16,0,0,1-7.48-1.19,13.42,13.42,0,0,1-5.28-3.47,14.28,14.28,0,0,1-3.11-5.6,26.27,26.27,0,0,1-1-7.59,24.5,24.5,0,0,1,1.1-7.53,16,16,0,0,1,3.31-5.86,14.83,14.83,0,0,1,5.51-3.77,20.45,20.45,0,0,1,7.75-1.34,21.8,21.8,0,0,1,7.52,1.17,13.34,13.34,0,0,1,5.26,3.45,14.54,14.54,0,0,1,3.09,5.61A26.29,26.29,0,0,1,531.86,153Zm-9.36.36a23.93,23.93,0,0,0-.38-4.39,10.32,10.32,0,0,0-1.28-3.49,6.59,6.59,0,0,0-2.41-2.31,7.73,7.73,0,0,0-3.77-.83,8,8,0,0,0-3.54.74,6.3,6.3,0,0,0-2.5,2.17,10.3,10.3,0,0,0-1.46,3.43,19.17,19.17,0,0,0-.49,4.57,22.17,22.17,0,0,0,.4,4.39,10.76,10.76,0,0,0,1.28,3.49,6.17,6.17,0,0,0,2.4,2.3,8,8,0,0,0,3.76.81,8.11,8.11,0,0,0,3.58-.74,6.37,6.37,0,0,0,2.49-2.15,9.87,9.87,0,0,0,1.45-3.42A20.26,20.26,0,0,0,522.5,153.37Z" transform="translate(-30.39 -29)"/><path class="cls-2" d="M569.84,169.45a1,1,0,0,1-.22.64,1.54,1.54,0,0,1-.72.45,6.2,6.2,0,0,1-1.39.27q-.88.09-2.19.09t-2.22-.09a6.2,6.2,0,0,1-1.39-.27,1.54,1.54,0,0,1-.72-.45,1,1,0,0,1-.22-.64V151.06a15.49,15.49,0,0,0-.34-3.69,7.16,7.16,0,0,0-1-2.29,4.36,4.36,0,0,0-1.68-1.48,5.21,5.21,0,0,0-2.4-.53,6,6,0,0,0-3.51,1.27,18.72,18.72,0,0,0-3.68,3.68v21.43a1,1,0,0,1-.22.64,1.56,1.56,0,0,1-.74.45,6.44,6.44,0,0,1-1.39.27,22.1,22.1,0,0,1-2.21.09c-.89,0-1.62,0-2.2-.09a6.44,6.44,0,0,1-1.39-.27,1.56,1.56,0,0,1-.74-.45,1,1,0,0,1-.22-.64V137.22a1.11,1.11,0,0,1,.18-.63,1.34,1.34,0,0,1,.65-.46,5.21,5.21,0,0,1,1.21-.27,16,16,0,0,1,1.86-.09,16.92,16.92,0,0,1,1.92.09,4.22,4.22,0,0,1,1.17.27,1.33,1.33,0,0,1,.6.46,1.11,1.11,0,0,1,.18.63v3.72a20.57,20.57,0,0,1,5.44-4.34,12.29,12.29,0,0,1,5.76-1.44,12.77,12.77,0,0,1,5.55,1.08,9.69,9.69,0,0,1,3.65,2.95,11.92,11.92,0,0,1,2,4.35,25.42,25.42,0,0,1,.61,6Z" transform="translate(-30.39 -29)"/><path class="cls-1" d="M50.11,219.37a9.94,9.94,0,0,1-.65,3.71,7.31,7.31,0,0,1-1.9,2.72,8.53,8.53,0,0,1-3.06,1.68,14.36,14.36,0,0,1-4.28.57H38.15V236a.57.57,0,0,1-.12.35,1,1,0,0,1-.42.25,4.55,4.55,0,0,1-.77.15,10.08,10.08,0,0,1-1.22.06,10.2,10.2,0,0,1-1.22-.06,4.5,4.5,0,0,1-.78-.15.83.83,0,0,1-.4-.25.57.57,0,0,1-.12-.35V213.63a1.8,1.8,0,0,1,.47-1.35,1.72,1.72,0,0,1,1.24-.45h5.86c.58,0,1.14,0,1.68.07a18.39,18.39,0,0,1,1.91.28,8.42,8.42,0,0,1,2.25.82,6.8,6.8,0,0,1,2,1.51,6.26,6.26,0,0,1,1.23,2.13A8.32,8.32,0,0,1,50.11,219.37Zm-5.28.37a4.42,4.42,0,0,0-.46-2.15,3.22,3.22,0,0,0-1.13-1.25,3.75,3.75,0,0,0-1.41-.51,10.92,10.92,0,0,0-1.53-.1H38.15v8.42h2.27a5.42,5.42,0,0,0,2-.32,3.58,3.58,0,0,0,1.34-.91,4,4,0,0,0,.78-1.41A5.57,5.57,0,0,0,44.83,219.74Z" transform="translate(-30.39 -29)"/><path class="cls-1" d="M74.62,236a.72.72,0,0,1-.08.35.57.57,0,0,1-.36.24,3.44,3.44,0,0,1-.85.14c-.37,0-.87,0-1.51,0s-1,0-1.29,0a3.08,3.08,0,0,1-.76-.15.92.92,0,0,1-.39-.26,1.35,1.35,0,0,1-.19-.4L67,230.39c-.27-.62-.53-1.18-.79-1.67a5.47,5.47,0,0,0-.85-1.22,3.17,3.17,0,0,0-1.09-.73,3.67,3.67,0,0,0-1.42-.25H61.24V236a.53.53,0,0,1-.13.35.93.93,0,0,1-.41.25,4.55,4.55,0,0,1-.77.15,12.43,12.43,0,0,1-2.44,0,4.5,4.5,0,0,1-.78-.15.83.83,0,0,1-.4-.25.57.57,0,0,1-.12-.35V213.42a1.53,1.53,0,0,1,.43-1.22,1.58,1.58,0,0,1,1.07-.37h6.43c.65,0,1.19,0,1.61,0s.81,0,1.15.09a10.66,10.66,0,0,1,2.7.73,6.56,6.56,0,0,1,2,1.36,5.57,5.57,0,0,1,1.27,2,7.16,7.16,0,0,1,.44,2.62,7.76,7.76,0,0,1-.31,2.28,5.86,5.86,0,0,1-.93,1.83,6,6,0,0,1-1.52,1.4,8.06,8.06,0,0,1-2,1,5.38,5.38,0,0,1,1,.66,4.77,4.77,0,0,1,.92.93A8.72,8.72,0,0,1,71.3,228a15.71,15.71,0,0,1,.75,1.58l2.09,4.9c.19.48.32.84.38,1.06A1.83,1.83,0,0,1,74.62,236Zm-6.51-16.86a3.67,3.67,0,0,0-.55-2.07,3.07,3.07,0,0,0-1.83-1.19,5.06,5.06,0,0,0-.87-.15,11.9,11.9,0,0,0-1.36-.06H61.24v7h2.57a5.89,5.89,0,0,0,1.88-.26,3.78,3.78,0,0,0,1.35-.72,3,3,0,0,0,.8-1.13A3.76,3.76,0,0,0,68.11,219.16Z" transform="translate(-30.39 -29)"/><path class="cls-1" d="M100.84,234.79a7.57,7.57,0,0,1,.29,1.09.67.67,0,0,1-.16.61,1.26,1.26,0,0,1-.74.25c-.36,0-.86,0-1.48,0s-1.17,0-1.53,0a3.6,3.6,0,0,1-.83-.12.68.68,0,0,1-.41-.24,1.36,1.36,0,0,1-.19-.4l-1.67-5H84.79l-1.58,4.86a1.43,1.43,0,0,1-.2.45.78.78,0,0,1-.4.28,3.16,3.16,0,0,1-.79.15c-.34,0-.78,0-1.33,0a12.17,12.17,0,0,1-1.38-.06,1,1,0,0,1-.69-.28.73.73,0,0,1-.14-.62,6.88,6.88,0,0,1,.29-1.08l7.66-22a2.18,2.18,0,0,1,.27-.53.94.94,0,0,1,.49-.3,3.81,3.81,0,0,1,.93-.14c.39,0,.92,0,1.57,0s1.36,0,1.81,0a4.74,4.74,0,0,1,1,.14,1,1,0,0,1,.54.31,2,2,0,0,1,.28.58Zm-11.4-18.22h0L85.9,227.13h7Z" transform="translate(-30.39 -29)"/><path class="cls-1" d="M123.2,232.91q0,.48,0,.81a3.74,3.74,0,0,1-.09.58,1.4,1.4,0,0,1-.15.41,1.89,1.89,0,0,1-.31.4,4.21,4.21,0,0,1-.81.56,11.07,11.07,0,0,1-1.48.67,12.86,12.86,0,0,1-2,.52,13.22,13.22,0,0,1-2.43.22,12.86,12.86,0,0,1-4.6-.79,9.21,9.21,0,0,1-3.5-2.35,10.71,10.71,0,0,1-2.21-3.91,17.58,17.58,0,0,1-.76-5.45,17.36,17.36,0,0,1,.84-5.63,11.73,11.73,0,0,1,2.36-4.13,10,10,0,0,1,3.64-2.53,12.17,12.17,0,0,1,4.67-.86,10.79,10.79,0,0,1,2,.17,11.29,11.29,0,0,1,1.78.45,10,10,0,0,1,1.47.64,4.4,4.4,0,0,1,.91.63,1.88,1.88,0,0,1,.35.43,1.4,1.4,0,0,1,.16.44,4.89,4.89,0,0,1,.08.63c0,.25,0,.55,0,.91a9.25,9.25,0,0,1,0,1,2.56,2.56,0,0,1-.13.65.83.83,0,0,1-.23.36.45.45,0,0,1-.31.12,1.32,1.32,0,0,1-.73-.34,12.6,12.6,0,0,0-1.14-.75,10.12,10.12,0,0,0-1.67-.75,7.23,7.23,0,0,0-2.31-.33,5.45,5.45,0,0,0-4.62,2.33,8,8,0,0,0-1.24,2.72,15.87,15.87,0,0,0,0,7.38,7.24,7.24,0,0,0,1.29,2.64,5.15,5.15,0,0,0,2,1.55,6.82,6.82,0,0,0,2.66.5,7.58,7.58,0,0,0,2.32-.31,9.67,9.67,0,0,0,1.68-.7c.47-.26.85-.49,1.16-.7a1.43,1.43,0,0,1,.7-.3.53.53,0,0,1,.3.07.69.69,0,0,1,.2.31,3.62,3.62,0,0,1,.11.64C123.19,232.08,123.2,232.45,123.2,232.91Z" transform="translate(-30.39 -29)"/><path class="cls-1" d="M145.71,213.9a6.56,6.56,0,0,1-.05.95,2.68,2.68,0,0,1-.14.64.78.78,0,0,1-.24.35.49.49,0,0,1-.32.12h-6.22v20a.57.57,0,0,1-.12.35,1,1,0,0,1-.41.25,4.92,4.92,0,0,1-.78.15,10.43,10.43,0,0,1-1.22.06,10.31,10.31,0,0,1-1.22-.06,4.5,4.5,0,0,1-.78-.15.93.93,0,0,1-.41-.25.58.58,0,0,1-.13-.35V216h-6.22a.47.47,0,0,1-.32-.12.85.85,0,0,1-.23-.35,2.63,2.63,0,0,1-.15-.64,8.65,8.65,0,0,1,0-.95,9.25,9.25,0,0,1,0-1,2.63,2.63,0,0,1,.15-.64.79.79,0,0,1,.23-.35.51.51,0,0,1,.32-.1H145a.53.53,0,0,1,.32.1.73.73,0,0,1,.24.35,2.68,2.68,0,0,1,.14.64A7,7,0,0,1,145.71,213.9Z" transform="translate(-30.39 -29)"/><path class="cls-1" d="M155.88,236a.57.57,0,0,1-.12.35,1,1,0,0,1-.42.25,4.55,4.55,0,0,1-.77.15,10.08,10.08,0,0,1-1.22.06,10.2,10.2,0,0,1-1.22-.06,4.5,4.5,0,0,1-.78-.15.93.93,0,0,1-.41-.25.53.53,0,0,1-.13-.35V212.52a.53.53,0,0,1,.13-.35.91.91,0,0,1,.42-.25,4.92,4.92,0,0,1,.78-.15,12.33,12.33,0,0,1,2.43,0,4.55,4.55,0,0,1,.77.15,1,1,0,0,1,.42.25.57.57,0,0,1,.12.35Z" transform="translate(-30.39 -29)"/><path class="cls-1" d="M180.64,232.91q0,.48,0,.81a3.74,3.74,0,0,1-.09.58,1.17,1.17,0,0,1-.15.41,1.89,1.89,0,0,1-.31.4,4.21,4.21,0,0,1-.81.56,11.07,11.07,0,0,1-1.48.67,12.86,12.86,0,0,1-2,.52,13.22,13.22,0,0,1-2.43.22,12.86,12.86,0,0,1-4.6-.79,9.21,9.21,0,0,1-3.5-2.35A10.71,10.71,0,0,1,163,230a17.58,17.58,0,0,1-.76-5.45,17.36,17.36,0,0,1,.84-5.63,11.73,11.73,0,0,1,2.36-4.13,10,10,0,0,1,3.64-2.53,12.19,12.19,0,0,1,4.68-.86,10.76,10.76,0,0,1,2,.17,11.29,11.29,0,0,1,1.78.45,10,10,0,0,1,1.47.64,4.4,4.4,0,0,1,.91.63,1.88,1.88,0,0,1,.35.43,1.4,1.4,0,0,1,.16.44,3.59,3.59,0,0,1,.08.63c0,.25,0,.55,0,.91a9.25,9.25,0,0,1,0,1,2.56,2.56,0,0,1-.13.65.83.83,0,0,1-.23.36.45.45,0,0,1-.31.12,1.32,1.32,0,0,1-.73-.34,12.6,12.6,0,0,0-1.14-.75,10.12,10.12,0,0,0-1.67-.75,7.23,7.23,0,0,0-2.31-.33,5.45,5.45,0,0,0-4.62,2.33,8.21,8.21,0,0,0-1.24,2.72,15.87,15.87,0,0,0,0,7.38,7.24,7.24,0,0,0,1.29,2.64,5.22,5.22,0,0,0,2,1.55,6.85,6.85,0,0,0,2.66.5,7.58,7.58,0,0,0,2.32-.31,9.67,9.67,0,0,0,1.68-.7,13.48,13.48,0,0,0,1.16-.7,1.43,1.43,0,0,1,.7-.3.53.53,0,0,1,.3.07.62.62,0,0,1,.2.31,2.88,2.88,0,0,1,.11.64C180.63,232.08,180.64,232.45,180.64,232.91Z" transform="translate(-30.39 -29)"/><path class="cls-1" d="M206.78,234.79a6.44,6.44,0,0,1,.29,1.09.66.66,0,0,1-.15.61,1.29,1.29,0,0,1-.75.25c-.36,0-.85,0-1.48,0s-1.16,0-1.53,0a3.6,3.6,0,0,1-.83-.12.71.71,0,0,1-.41-.24,1.36,1.36,0,0,1-.19-.4l-1.67-5h-9.33l-1.57,4.86a1.7,1.7,0,0,1-.2.45.85.85,0,0,1-.41.28,3.07,3.07,0,0,1-.78.15c-.34,0-.79,0-1.34,0a12.17,12.17,0,0,1-1.38-.06,1.06,1.06,0,0,1-.69-.28.77.77,0,0,1-.14-.62,6.88,6.88,0,0,1,.29-1.08l7.66-22a2.18,2.18,0,0,1,.27-.53,1,1,0,0,1,.49-.3,3.81,3.81,0,0,1,.93-.14c.4,0,.92,0,1.58,0s1.35,0,1.8,0a4.85,4.85,0,0,1,1,.14,1,1,0,0,1,.53.31,1.74,1.74,0,0,1,.28.58Zm-11.4-18.22h0l-3.51,10.56h7Z" transform="translate(-30.39 -29)"/><path class="cls-1" d="M226.07,234.56a8.64,8.64,0,0,1,0,1,3,3,0,0,1-.14.65,1,1,0,0,1-.24.38.58.58,0,0,1-.34.11H213.92a1.57,1.57,0,0,1-1.07-.37,1.53,1.53,0,0,1-.43-1.22V212.52a.57.57,0,0,1,.12-.35,1,1,0,0,1,.42-.25,4.55,4.55,0,0,1,.77-.15,10.43,10.43,0,0,1,1.22-.06,10.26,10.26,0,0,1,1.23.06,4.55,4.55,0,0,1,.77.15.93.93,0,0,1,.41.25.53.53,0,0,1,.13.35v20h7.81a.57.57,0,0,1,.34.1.89.89,0,0,1,.24.35,2.7,2.7,0,0,1,.14.63A8.64,8.64,0,0,1,226.07,234.56Z" transform="translate(-30.39 -29)"/><path class="cls-1" d="M268.41,235.39a2.06,2.06,0,0,1-.32.73,1.2,1.2,0,0,1-.6.43,4.31,4.31,0,0,1-1,.19c-.42,0-1,0-1.61,0s-1.32,0-1.76,0a4.13,4.13,0,0,1-1.05-.19,1.06,1.06,0,0,1-.55-.43,2.07,2.07,0,0,1-.27-.73l-4-15.75h0l-3.77,15.75a2.17,2.17,0,0,1-.27.72,1.08,1.08,0,0,1-.54.43,3.46,3.46,0,0,1-1,.2c-.43,0-1,0-1.7,0s-1.33,0-1.78,0a4,4,0,0,1-1-.19,1.09,1.09,0,0,1-.56-.43,2.84,2.84,0,0,1-.29-.73l-5.64-21.68a5.34,5.34,0,0,1-.19-1.08.69.69,0,0,1,.22-.61,1.36,1.36,0,0,1,.79-.26c.36,0,.87,0,1.52,0s1.08,0,1.43,0a2.75,2.75,0,0,1,.8.14.61.61,0,0,1,.36.3,2.07,2.07,0,0,1,.16.57l4.36,19h0l4.54-18.9a1.94,1.94,0,0,1,.2-.59.84.84,0,0,1,.42-.36,2.92,2.92,0,0,1,.82-.17c.34,0,.8,0,1.38,0s1.1,0,1.47,0a2.68,2.68,0,0,1,.84.17.85.85,0,0,1,.43.35,2,2,0,0,1,.21.61l4.69,18.9h0l4.35-19a2.22,2.22,0,0,1,.16-.53.68.68,0,0,1,.36-.35,2.53,2.53,0,0,1,.77-.17c.33,0,.8,0,1.4,0s1,0,1.32,0a1.1,1.1,0,0,1,.68.26.76.76,0,0,1,.18.62,6.78,6.78,0,0,1-.2,1.13Z" transform="translate(-30.39 -29)"/><path class="cls-1" d="M285.12,236a.57.57,0,0,1-.12.35.93.93,0,0,1-.41.25,4.77,4.77,0,0,1-.77.15,12.54,12.54,0,0,1-2.45,0,4.5,4.5,0,0,1-.78-.15.93.93,0,0,1-.41-.25.58.58,0,0,1-.13-.35V212.52a.58.58,0,0,1,.13-.35.91.91,0,0,1,.42-.25,4.92,4.92,0,0,1,.78-.15,10,10,0,0,1,1.21-.06,10.26,10.26,0,0,1,1.23.06,4.77,4.77,0,0,1,.77.15.93.93,0,0,1,.41.25.57.57,0,0,1,.12.35Z" transform="translate(-30.39 -29)"/><path class="cls-1" d="M307.42,229.22a7.78,7.78,0,0,1-.72,3.44,7.17,7.17,0,0,1-2,2.47,8.56,8.56,0,0,1-2.92,1.48,12.13,12.13,0,0,1-3.57.5,12.73,12.73,0,0,1-2.39-.21,13,13,0,0,1-1.95-.51,7.89,7.89,0,0,1-1.41-.62,4.1,4.1,0,0,1-.82-.58,1.43,1.43,0,0,1-.35-.72,6.48,6.48,0,0,1-.11-1.35,9.41,9.41,0,0,1,0-1,3,3,0,0,1,.13-.65.65.65,0,0,1,.23-.36.52.52,0,0,1,.33-.1,1.53,1.53,0,0,1,.76.32c.33.21.75.44,1.26.7a11.73,11.73,0,0,0,1.83.7,8.73,8.73,0,0,0,2.47.31,5.63,5.63,0,0,0,1.65-.22,3.52,3.52,0,0,0,1.24-.62,2.64,2.64,0,0,0,.78-1,3.34,3.34,0,0,0,.26-1.32,2.29,2.29,0,0,0-.46-1.45,4.36,4.36,0,0,0-1.2-1.08,11.94,11.94,0,0,0-1.68-.88l-1.94-.88a16.33,16.33,0,0,1-1.93-1,7.82,7.82,0,0,1-1.68-1.4,6.42,6.42,0,0,1-1.2-1.93,7,7,0,0,1-.47-2.67,7.08,7.08,0,0,1,.67-3.14,6.47,6.47,0,0,1,1.78-2.25,7.6,7.6,0,0,1,2.65-1.33,11.43,11.43,0,0,1,3.24-.44,11.58,11.58,0,0,1,1.76.13,11.12,11.12,0,0,1,1.65.37,8,8,0,0,1,1.37.52,3.33,3.33,0,0,1,.78.47,1.16,1.16,0,0,1,.38.69,5.06,5.06,0,0,1,.07.55c0,.23,0,.51,0,.84s0,.68,0,.94a3,3,0,0,1-.1.63.76.76,0,0,1-.19.37.53.53,0,0,1-.34.11,1.61,1.61,0,0,1-.67-.27c-.31-.18-.68-.37-1.13-.58a10.69,10.69,0,0,0-1.56-.58,7,7,0,0,0-1.94-.26,4.77,4.77,0,0,0-1.44.2,2.93,2.93,0,0,0-1,.56,2.21,2.21,0,0,0-.62.86,2.84,2.84,0,0,0-.2,1.05,2.32,2.32,0,0,0,.45,1.43,4.41,4.41,0,0,0,1.21,1.08,13.12,13.12,0,0,0,1.72.88l2,.87a20.62,20.62,0,0,1,2,1.05,7.7,7.7,0,0,1,1.7,1.4,6.52,6.52,0,0,1,1.21,1.92A6.67,6.67,0,0,1,307.42,229.22Z" transform="translate(-30.39 -29)"/><path class="cls-1" d="M334.09,223.89a16.87,16.87,0,0,1-.9,5.84,10,10,0,0,1-2.56,4,10.31,10.31,0,0,1-4.06,2.25,19.84,19.84,0,0,1-5.69.72h-5.94a1.56,1.56,0,0,1-1.06-.37,1.53,1.53,0,0,1-.43-1.22V213.42a1.53,1.53,0,0,1,.43-1.22,1.56,1.56,0,0,1,1.06-.37h6.38a17.75,17.75,0,0,1,5.63.78,10.05,10.05,0,0,1,3.9,2.3,9.9,9.9,0,0,1,2.41,3.77A15.11,15.11,0,0,1,334.09,223.89Zm-5.23.17a12.23,12.23,0,0,0-.41-3.28,6.94,6.94,0,0,0-1.32-2.63,6,6,0,0,0-2.35-1.74,9.38,9.38,0,0,0-3.75-.63h-2.55v16.9h2.63a9.88,9.88,0,0,0,3.49-.54,5.84,5.84,0,0,0,2.37-1.62,6.82,6.82,0,0,0,1.42-2.7A13.23,13.23,0,0,0,328.86,224.06Z" transform="translate(-30.39 -29)"/><path class="cls-1" d="M362.74,224a18.11,18.11,0,0,1-.77,5.53,11.08,11.08,0,0,1-2.28,4.14,9.79,9.79,0,0,1-3.75,2.59,13.81,13.81,0,0,1-5.18.89,15.45,15.45,0,0,1-5.06-.75,8.79,8.79,0,0,1-3.6-2.32,9.91,9.91,0,0,1-2.16-3.95,19.94,19.94,0,0,1-.72-5.69A17.87,17.87,0,0,1,340,219a11.08,11.08,0,0,1,2.29-4.1,9.9,9.9,0,0,1,3.75-2.59,13.83,13.83,0,0,1,5.19-.9,15.22,15.22,0,0,1,5,.75,8.56,8.56,0,0,1,3.6,2.3,10,10,0,0,1,2.19,3.93A18.6,18.6,0,0,1,362.74,224Zm-5.3.27a19.46,19.46,0,0,0-.3-3.56,7.89,7.89,0,0,0-1.05-2.75,4.93,4.93,0,0,0-2-1.76,6.68,6.68,0,0,0-3.07-.63,6.25,6.25,0,0,0-3.11.71,5.75,5.75,0,0,0-2,1.87,7.73,7.73,0,0,0-1.08,2.73,16.82,16.82,0,0,0-.32,3.31,19.3,19.3,0,0,0,.31,3.66,7.78,7.78,0,0,0,1,2.78,4.78,4.78,0,0,0,1.95,1.75,6.9,6.9,0,0,0,3.1.61,6.39,6.39,0,0,0,3.11-.69,5.58,5.58,0,0,0,2-1.88,8,8,0,0,0,1.09-2.78A17.3,17.3,0,0,0,357.44,224.23Z" transform="translate(-30.39 -29)"/><path class="cls-1" d="M398.1,236a.63.63,0,0,1-.11.35.81.81,0,0,1-.38.25,4.33,4.33,0,0,1-.74.15,9.42,9.42,0,0,1-1.17.06,9.07,9.07,0,0,1-1.15-.06,4,4,0,0,1-.73-.15.91.91,0,0,1-.39-.25.63.63,0,0,1-.11-.35V215.76h0l-7.2,20.2a.82.82,0,0,1-.25.41,1.11,1.11,0,0,1-.47.26,2.91,2.91,0,0,1-.76.13q-.47,0-1.11,0c-.44,0-.81,0-1.11,0a3.28,3.28,0,0,1-.76-.15,1.38,1.38,0,0,1-.47-.26.7.7,0,0,1-.23-.37L374,215.76h0V236a.63.63,0,0,1-.11.35.8.8,0,0,1-.39.25,4.54,4.54,0,0,1-.74.15,11.15,11.15,0,0,1-2.31,0,4.13,4.13,0,0,1-.74-.15.8.8,0,0,1-.39-.25.62.62,0,0,1-.1-.35V213.84a2,2,0,0,1,.52-1.49,1.83,1.83,0,0,1,1.38-.52h3.3a7.43,7.43,0,0,1,1.52.14,3.09,3.09,0,0,1,1.09.48,2.79,2.79,0,0,1,.77.89,6.75,6.75,0,0,1,.54,1.35l5.37,14.8h.08l5.57-14.76a7.85,7.85,0,0,1,.54-1.36,3,3,0,0,1,.7-.91,2.31,2.31,0,0,1,.93-.49,5,5,0,0,1,1.24-.14h3.4a2.67,2.67,0,0,1,.9.13,1.51,1.51,0,0,1,.61.4,1.63,1.63,0,0,1,.36.63,2.53,2.53,0,0,1,.13.85Z" transform="translate(-30.39 -29)"/><path class="cls-1" d="M415.59,229.74a6.33,6.33,0,0,1,.32-2,6.23,6.23,0,0,1,.95-1.8,9.12,9.12,0,0,1,1.57-1.61,17.65,17.65,0,0,1,2.16-1.5,19.27,19.27,0,0,1-1.2-1.66,11.62,11.62,0,0,1-.85-1.49,7.74,7.74,0,0,1-.5-1.35,5.16,5.16,0,0,1-.16-1.28,6.61,6.61,0,0,1,.48-2.52,5.27,5.27,0,0,1,1.5-2,7.56,7.56,0,0,1,2.59-1.37,12.35,12.35,0,0,1,3.78-.51,14.19,14.19,0,0,1,3.48.38,6.87,6.87,0,0,1,2.39,1.09,4.36,4.36,0,0,1,1.41,1.73,5.67,5.67,0,0,1,.46,2.31,5.5,5.5,0,0,1-.4,2.13,6.05,6.05,0,0,1-1.19,1.86,11,11,0,0,1-2,1.7,24.83,24.83,0,0,1-2.79,1.64c.35.4.73.82,1.16,1.26s.87.89,1.33,1.33l1.37,1.31c.46.44.91.84,1.35,1.21a6,6,0,0,0,.45-.88,8.22,8.22,0,0,0,.34-1.06,10.77,10.77,0,0,0,.23-1.13,7.27,7.27,0,0,0,.09-1.13v-.6a.8.8,0,0,1,.07-.36.56.56,0,0,1,.32-.25A2.77,2.77,0,0,1,435,223c.3,0,.69,0,1.16,0l1.12,0a2.73,2.73,0,0,1,.7.13.68.68,0,0,1,.36.26.73.73,0,0,1,.11.41v.62a14.79,14.79,0,0,1-.13,1.86,13.51,13.51,0,0,1-.4,1.83,11.6,11.6,0,0,1-.64,1.71,14,14,0,0,1-.85,1.53c.45.34.84.63,1.17.86s.6.41.83.55a4.2,4.2,0,0,0,.58.28,1.23,1.23,0,0,0,.38.07h.39a.37.37,0,0,1,.3.14.91.91,0,0,1,.17.48,6.37,6.37,0,0,1,.06,1c0,.48,0,.85,0,1.12a2.72,2.72,0,0,1-.09.59.68.68,0,0,1-.23.32,1.84,1.84,0,0,1-.55.23,3.51,3.51,0,0,1-.92.11,3.92,3.92,0,0,1-.88-.11,4.63,4.63,0,0,1-1-.4,15.75,15.75,0,0,1-1.38-.79q-.79-.49-1.83-1.26a17.55,17.55,0,0,1-1.86,1.11,12.6,12.6,0,0,1-2,.81,13.6,13.6,0,0,1-2.16.5,14.89,14.89,0,0,1-2.38.17,15.16,15.16,0,0,1-2.44-.19,11.94,11.94,0,0,1-2.23-.58,9.3,9.3,0,0,1-1.91-1,6.41,6.41,0,0,1-1.48-1.41,6.48,6.48,0,0,1-1-1.87A7.27,7.27,0,0,1,415.59,229.74Zm5.23-.27a3.78,3.78,0,0,0,.3,1.52,3.36,3.36,0,0,0,.89,1.19,4.17,4.17,0,0,0,1.43.78,6.48,6.48,0,0,0,2,.28,6.31,6.31,0,0,0,1.15-.11,9.08,9.08,0,0,0,1.11-.29,6.91,6.91,0,0,0,1-.44,7,7,0,0,0,.91-.57c-.58-.46-1.16-1-1.74-1.46s-1.15-1-1.7-1.57-1.08-1.05-1.58-1.56-1-1-1.35-1.47a6.32,6.32,0,0,0-1.13.87,5.38,5.38,0,0,0-.74.91,3.72,3.72,0,0,0-.42.94A3.62,3.62,0,0,0,420.82,229.47ZM423,216.78a2.82,2.82,0,0,0,.13.84,5.53,5.53,0,0,0,.37.9,9.62,9.62,0,0,0,.61,1c.24.35.52.73.83,1.14.75-.41,1.38-.79,1.89-1.13a7.88,7.88,0,0,0,1.22-1,3.27,3.27,0,0,0,.65-1,2.7,2.7,0,0,0,.19-1,2.27,2.27,0,0,0-.17-.86,1.92,1.92,0,0,0-.54-.7,2.56,2.56,0,0,0-.9-.47,4,4,0,0,0-1.27-.18,4.53,4.53,0,0,0-1.37.19,2.33,2.33,0,0,0-.93.52,1.9,1.9,0,0,0-.54.78A2.61,2.61,0,0,0,423,216.78Z" transform="translate(-30.39 -29)"/><path class="cls-1" d="M474.65,219.37a9.75,9.75,0,0,1-.65,3.71,7.2,7.2,0,0,1-1.9,2.72,8.53,8.53,0,0,1-3.06,1.68,14.34,14.34,0,0,1-4.27.57h-2.08V236a.57.57,0,0,1-.12.35,1,1,0,0,1-.41.25,4.77,4.77,0,0,1-.77.15,12.54,12.54,0,0,1-2.45,0,4.5,4.5,0,0,1-.78-.15.89.89,0,0,1-.4-.25.57.57,0,0,1-.12-.35V213.63a1.8,1.8,0,0,1,.47-1.35,1.73,1.73,0,0,1,1.24-.45h5.86c.59,0,1.15,0,1.68.07a18,18,0,0,1,1.91.28,8.42,8.42,0,0,1,2.25.82,6.66,6.66,0,0,1,1.95,1.51,6.26,6.26,0,0,1,1.23,2.13A8.32,8.32,0,0,1,474.65,219.37Zm-5.28.37a4.42,4.42,0,0,0-.46-2.15,3.15,3.15,0,0,0-1.13-1.25,3.75,3.75,0,0,0-1.41-.51,10.83,10.83,0,0,0-1.53-.1h-2.15v8.42H465a5.42,5.42,0,0,0,2-.32,3.5,3.5,0,0,0,1.34-.91,4,4,0,0,0,.79-1.41A5.87,5.87,0,0,0,469.37,219.74Z" transform="translate(-30.39 -29)"/><path class="cls-1" d="M495.46,229.22a7.64,7.64,0,0,1-.73,3.44,7.17,7.17,0,0,1-2,2.47,8.47,8.47,0,0,1-2.92,1.48,12.13,12.13,0,0,1-3.57.5,12.89,12.89,0,0,1-2.39-.21,13.73,13.73,0,0,1-1.95-.51,7.89,7.89,0,0,1-1.41-.62,3.71,3.71,0,0,1-.81-.58,1.36,1.36,0,0,1-.36-.72,6.61,6.61,0,0,1-.1-1.35c0-.4,0-.73,0-1a3,3,0,0,1,.13-.65.7.7,0,0,1,.23-.36.57.57,0,0,1,.34-.1,1.51,1.51,0,0,1,.75.32c.33.21.75.44,1.26.7a11.73,11.73,0,0,0,1.83.7,8.83,8.83,0,0,0,2.47.31,5.54,5.54,0,0,0,1.65-.22,3.52,3.52,0,0,0,1.24-.62,2.64,2.64,0,0,0,.78-1,3.18,3.18,0,0,0,.27-1.32,2.35,2.35,0,0,0-.46-1.45,4.67,4.67,0,0,0-1.2-1.08,13.16,13.16,0,0,0-1.68-.88c-.63-.28-1.28-.57-1.94-.88a16.46,16.46,0,0,1-1.94-1,7.82,7.82,0,0,1-1.68-1.4,6.84,6.84,0,0,1-1.2-1.93,7,7,0,0,1-.46-2.67,7.08,7.08,0,0,1,.66-3.14,6.5,6.5,0,0,1,1.79-2.25,7.51,7.51,0,0,1,2.65-1.33,11.31,11.31,0,0,1,3.23-.44,11.71,11.71,0,0,1,1.77.13,11.12,11.12,0,0,1,1.65.37,8.22,8.22,0,0,1,1.36.52,3.46,3.46,0,0,1,.79.47,1.52,1.52,0,0,1,.26.33,1.73,1.73,0,0,1,.11.36,3.39,3.39,0,0,1,.07.55c0,.23,0,.51,0,.84s0,.68,0,.94a3,3,0,0,1-.1.63.68.68,0,0,1-.19.37.49.49,0,0,1-.33.11,1.59,1.59,0,0,1-.68-.27c-.3-.18-.68-.37-1.13-.58a11,11,0,0,0-1.55-.58,7,7,0,0,0-1.94-.26,4.77,4.77,0,0,0-1.44.2,3.08,3.08,0,0,0-1,.56,2.19,2.19,0,0,0-.61.86,2.66,2.66,0,0,0-.21,1.05,2.27,2.27,0,0,0,.46,1.43,4.27,4.27,0,0,0,1.21,1.08,12.37,12.37,0,0,0,1.71.88l2,.87a19.48,19.48,0,0,1,2,1.05,8,8,0,0,1,1.71,1.4,6.73,6.73,0,0,1,1.21,1.92A6.86,6.86,0,0,1,495.46,229.22Z" transform="translate(-30.39 -29)"/><path class="cls-1" d="M510.77,227.25V236a.57.57,0,0,1-.12.35,1,1,0,0,1-.42.25,4.55,4.55,0,0,1-.77.15,10.43,10.43,0,0,1-1.22.06,10.26,10.26,0,0,1-1.23-.06,4.92,4.92,0,0,1-.78-.15.82.82,0,0,1-.41-.25.57.57,0,0,1-.12-.35v-8.73l-6.79-13.54a5.6,5.6,0,0,1-.47-1.1.56.56,0,0,1,.11-.6,1.44,1.44,0,0,1,.82-.25c.39,0,.94,0,1.65,0s1.06,0,1.41,0a3.55,3.55,0,0,1,.83.15,1.06,1.06,0,0,1,.46.27,3,3,0,0,1,.27.45l2.77,6.1c.27.59.53,1.21.8,1.86s.52,1.34.79,2.06h0c.24-.69.49-1.37.75-2s.5-1.27.75-1.86l2.72-6.07a2,2,0,0,1,.24-.49,1,1,0,0,1,.44-.29,2.72,2.72,0,0,1,.78-.16c.34,0,.78,0,1.33,0,.73,0,1.29,0,1.7,0a1.41,1.41,0,0,1,.82.25.56.56,0,0,1,.11.61,7.55,7.55,0,0,1-.46,1.09Z" transform="translate(-30.39 -29)"/><path class="cls-1" d="M539,232.91q0,.48,0,.81a3.74,3.74,0,0,1-.09.58,1.77,1.77,0,0,1-.15.41,2.29,2.29,0,0,1-.31.4,4.21,4.21,0,0,1-.81.56,11.07,11.07,0,0,1-1.48.67,13.75,13.75,0,0,1-4.43.74,12.92,12.92,0,0,1-4.61-.79,9.17,9.17,0,0,1-3.49-2.35,10.57,10.57,0,0,1-2.21-3.91,17.57,17.57,0,0,1-.77-5.45,17.35,17.35,0,0,1,.85-5.63,11.73,11.73,0,0,1,2.36-4.13,9.91,9.91,0,0,1,3.64-2.53,12.17,12.17,0,0,1,4.67-.86,10.87,10.87,0,0,1,2,.17,11.29,11.29,0,0,1,1.78.45,9.42,9.42,0,0,1,1.46.64,4.53,4.53,0,0,1,.92.63,1.88,1.88,0,0,1,.35.43,1.4,1.4,0,0,1,.16.44c0,.18.06.39.08.63s0,.55,0,.91a9.25,9.25,0,0,1,0,1,2.56,2.56,0,0,1-.13.65.93.93,0,0,1-.23.36.47.47,0,0,1-.31.12,1.29,1.29,0,0,1-.73-.34,12.6,12.6,0,0,0-1.14-.75,10.51,10.51,0,0,0-1.67-.75,7.25,7.25,0,0,0-2.32-.33,5.42,5.42,0,0,0-4.61,2.33,8,8,0,0,0-1.24,2.72,15.87,15.87,0,0,0,0,7.38,7.39,7.39,0,0,0,1.28,2.64,5.25,5.25,0,0,0,2,1.55,6.82,6.82,0,0,0,2.66.5,7.62,7.62,0,0,0,2.32-.31,10.38,10.38,0,0,0,1.68-.7,13.11,13.11,0,0,0,1.15-.7,1.47,1.47,0,0,1,.7-.3.57.57,0,0,1,.31.07.61.61,0,0,1,.19.31,3.5,3.5,0,0,1,.12.64C539,232.08,539,232.45,539,232.91Z" transform="translate(-30.39 -29)"/><path class="cls-1" d="M564.15,236a.53.53,0,0,1-.13.35.93.93,0,0,1-.41.25,4.55,4.55,0,0,1-.77.15,10,10,0,0,1-1.21.06,10.26,10.26,0,0,1-1.23-.06,4.18,4.18,0,0,1-.77-.15,1,1,0,0,1-.41-.25.57.57,0,0,1-.12-.35v-10h-9.29v10a.57.57,0,0,1-.12.35.83.83,0,0,1-.4.25,4.55,4.55,0,0,1-.77.15,10.26,10.26,0,0,1-1.23.06,10.43,10.43,0,0,1-1.22-.06,4.55,4.55,0,0,1-.77-.15,1,1,0,0,1-.42-.25.57.57,0,0,1-.12-.35V212.52a.57.57,0,0,1,.12-.35,1,1,0,0,1,.42-.25,4.55,4.55,0,0,1,.77-.15,10.43,10.43,0,0,1,1.22-.06,10.26,10.26,0,0,1,1.23.06,4.55,4.55,0,0,1,.77.15.83.83,0,0,1,.4.25.57.57,0,0,1,.12.35v9.12h9.29v-9.12a.57.57,0,0,1,.12-.35,1,1,0,0,1,.41-.25,4.18,4.18,0,0,1,.77-.15,10.26,10.26,0,0,1,1.23-.06,10,10,0,0,1,1.21.06,4.55,4.55,0,0,1,.77.15.93.93,0,0,1,.41.25.53.53,0,0,1,.13.35Z" transform="translate(-30.39 -29)"/><path class="cls-1" d="M594.07,224a18.11,18.11,0,0,1-.77,5.53,11.08,11.08,0,0,1-2.28,4.14,9.79,9.79,0,0,1-3.75,2.59,13.81,13.81,0,0,1-5.18.89,15.45,15.45,0,0,1-5.06-.75,8.79,8.79,0,0,1-3.6-2.32,9.91,9.91,0,0,1-2.16-3.95,19.94,19.94,0,0,1-.72-5.69,17.87,17.87,0,0,1,.77-5.42,11.08,11.08,0,0,1,2.29-4.1,9.9,9.9,0,0,1,3.75-2.59,13.83,13.83,0,0,1,5.19-.9,15.22,15.22,0,0,1,5,.75,8.56,8.56,0,0,1,3.6,2.3,10,10,0,0,1,2.19,3.93A18.6,18.6,0,0,1,594.07,224Zm-5.3.27a19.46,19.46,0,0,0-.3-3.56,7.89,7.89,0,0,0-1.05-2.75,4.93,4.93,0,0,0-2-1.76,6.68,6.68,0,0,0-3.07-.63,6.25,6.25,0,0,0-3.11.71,5.75,5.75,0,0,0-2,1.87,7.73,7.73,0,0,0-1.08,2.73,16.82,16.82,0,0,0-.32,3.31,20.16,20.16,0,0,0,.31,3.66,8,8,0,0,0,1,2.78,4.74,4.74,0,0,0,2,1.75,6.83,6.83,0,0,0,3.09.61,6.39,6.39,0,0,0,3.11-.69,5.58,5.58,0,0,0,2-1.88,8,8,0,0,0,1.09-2.78A17.3,17.3,0,0,0,588.77,224.23Z" transform="translate(-30.39 -29)"/><path class="cls-1" d="M614.13,234.56a8.64,8.64,0,0,1,0,1,3,3,0,0,1-.14.65,1,1,0,0,1-.24.38.58.58,0,0,1-.34.11H602a1.57,1.57,0,0,1-1.07-.37,1.53,1.53,0,0,1-.43-1.22V212.52a.57.57,0,0,1,.12-.35,1,1,0,0,1,.42-.25,4.55,4.55,0,0,1,.77-.15,10.43,10.43,0,0,1,1.22-.06,10.26,10.26,0,0,1,1.23.06,4.55,4.55,0,0,1,.77.15.93.93,0,0,1,.41.25.58.58,0,0,1,.13.35v20h7.81a.57.57,0,0,1,.34.1.89.89,0,0,1,.24.35,2.7,2.7,0,0,1,.14.63A8.64,8.64,0,0,1,614.13,234.56Z" transform="translate(-30.39 -29)"/><path class="cls-1" d="M640.92,224a18.44,18.44,0,0,1-.76,5.53,11.24,11.24,0,0,1-2.29,4.14,9.79,9.79,0,0,1-3.75,2.59,13.81,13.81,0,0,1-5.18.89,15.45,15.45,0,0,1-5.06-.75,8.76,8.76,0,0,1-3.59-2.32,9.92,9.92,0,0,1-2.17-3.95,20,20,0,0,1-.71-5.69,17.88,17.88,0,0,1,.76-5.42,11.08,11.08,0,0,1,2.29-4.1,9.9,9.9,0,0,1,3.75-2.59,13.83,13.83,0,0,1,5.19-.9,15.18,15.18,0,0,1,5,.75,8.66,8.66,0,0,1,3.61,2.3,10.11,10.11,0,0,1,2.18,3.93A18.6,18.6,0,0,1,640.92,224Zm-5.3.27a19.46,19.46,0,0,0-.3-3.56,7.89,7.89,0,0,0-1.05-2.75,4.93,4.93,0,0,0-2-1.76,6.68,6.68,0,0,0-3.07-.63,6.25,6.25,0,0,0-3.11.71,5.64,5.64,0,0,0-2,1.87,7.56,7.56,0,0,0-1.09,2.73,16.82,16.82,0,0,0-.32,3.31,20.16,20.16,0,0,0,.31,3.66,8,8,0,0,0,1,2.78,4.74,4.74,0,0,0,2,1.75,6.89,6.89,0,0,0,3.09.61,6.36,6.36,0,0,0,3.11-.69,5.58,5.58,0,0,0,2-1.88,8,8,0,0,0,1.09-2.78A17.3,17.3,0,0,0,635.62,224.23Z" transform="translate(-30.39 -29)"/><path class="cls-1" d="M667.26,215.69a8.72,8.72,0,0,1,0,1,3.39,3.39,0,0,1-.13.64.74.74,0,0,1-.22.34.48.48,0,0,1-.29.09,1.83,1.83,0,0,1-.81-.34,11.74,11.74,0,0,0-1.48-.75,15.57,15.57,0,0,0-2.2-.75,11.39,11.39,0,0,0-3-.35,8.18,8.18,0,0,0-3.27.63,7,7,0,0,0-2.49,1.76,8,8,0,0,0-1.6,2.75,10.77,10.77,0,0,0-.55,3.54,11.56,11.56,0,0,0,.56,3.75,7.58,7.58,0,0,0,1.59,2.72,6.48,6.48,0,0,0,2.45,1.65,8.61,8.61,0,0,0,3.15.56,7.19,7.19,0,0,0,1.67-.19,6.05,6.05,0,0,0,1.54-.58v-5.76h-4.7c-.23,0-.41-.14-.54-.43a4,4,0,0,1-.19-1.47,7.6,7.6,0,0,1,0-.9,2.4,2.4,0,0,1,.15-.59.8.8,0,0,1,.23-.32.49.49,0,0,1,.31-.11h8.39a1.33,1.33,0,0,1,.54.11,1.27,1.27,0,0,1,.43.31,1.47,1.47,0,0,1,.27.51,2.07,2.07,0,0,1,.1.68V234a2.43,2.43,0,0,1-.2,1,1.42,1.42,0,0,1-.83.68,16,16,0,0,1-1.54.52c-.62.18-1.25.33-1.91.46s-1.33.22-2,.29-1.35.09-2,.09a15.47,15.47,0,0,1-5.32-.85,10.84,10.84,0,0,1-4-2.48,10.65,10.65,0,0,1-2.49-3.95A16.56,16.56,0,0,1,647,219a11.47,11.47,0,0,1,2.61-4.13,11.2,11.2,0,0,1,4.08-2.6,15,15,0,0,1,5.32-.9,17.6,17.6,0,0,1,2.94.22,14.63,14.63,0,0,1,2.31.54,8.76,8.76,0,0,1,1.65.68,4.29,4.29,0,0,1,.91.63,1.55,1.55,0,0,1,.37.76A6.5,6.5,0,0,1,667.26,215.69Z" transform="translate(-30.39 -29)"/><path class="cls-1" d="M684,227.25V236a.53.53,0,0,1-.13.35.93.93,0,0,1-.41.25,4.5,4.5,0,0,1-.78.15,10.13,10.13,0,0,1-1.21.06,10.26,10.26,0,0,1-1.23-.06,4.92,4.92,0,0,1-.78-.15.82.82,0,0,1-.41-.25.57.57,0,0,1-.12-.35v-8.73l-6.8-13.54a7.2,7.2,0,0,1-.47-1.1.56.56,0,0,1,.12-.6,1.44,1.44,0,0,1,.82-.25c.39,0,.94,0,1.65,0s1.06,0,1.41,0a3.55,3.55,0,0,1,.83.15,1,1,0,0,1,.45.27,2.33,2.33,0,0,1,.28.45l2.77,6.1c.27.59.53,1.21.79,1.86s.53,1.34.8,2.06h0c.24-.69.49-1.37.75-2s.5-1.27.75-1.86l2.72-6.07a2,2,0,0,1,.24-.49,1,1,0,0,1,.43-.29,2.87,2.87,0,0,1,.79-.16c.33,0,.78,0,1.33,0,.73,0,1.29,0,1.7,0a1.44,1.44,0,0,1,.82.25.57.57,0,0,1,.11.61,7.55,7.55,0,0,1-.46,1.09Z" transform="translate(-30.39 -29)"/></svg>